<?xml version="1.0" encoding="utf-8"?>
<!-- Generator: Adobe Illustrator 16.0.0, SVG Export Plug-In . SVG Version: 6.00 Build 0)  -->
<!DOCTYPE svg PUBLIC "-//W3C//DTD SVG 1.1//EN" "http://www.w3.org/Graphics/SVG/1.1/DTD/svg11.dtd">
<svg version="1.1" id="Calque_1" xmlns="http://www.w3.org/2000/svg" xmlns:xlink="http://www.w3.org/1999/xlink" x="0px" y="0px"
	 width="100px" height="100px" viewBox="0 0 100 100" enable-background="new 0 0 100 100" xml:space="preserve">
<g>
	<g transform="translate(0.000000,512.000000) scale(0.100000,-0.100000)">
		<path fill="#FFFFFF" d="M-393.027,5151.909v-51.987h60.361h60.361v51.987v51.987h-60.361h-60.361V5151.909z"/>
		<path fill="#FFFFFF" d="M-393.027,5017.836v-48.828l-12.422-6.499c-25.068-13.188-53.115-44.941-64.258-72.793
			c-11.133-27.847-10.576-12.627-10.576-338.496v-298.027h146.68h146.689v301.357c0,295.063,0,301.748-3.711,316.04
			c-9.834,38.804-36.758,73.716-70.752,91.919l-10.947,5.747v49.209v49.014h-60.352h-60.352V5017.836L-393.027,5017.836z
			 M-211.045,4545.644v-143.896h-120.703h-120.693v143.896v143.906h120.693h120.693v-143.906H-211.045z"/>
		<path fill="#FFFFFF" d="M-878.579,4829.931c-9.102-16.333-16.719-38.066-21.538-60.903c-5.566-27.3-4.453-73.901,2.598-100.093
			c19.126-72.227,66.841-122.91,130.908-139.072l7.798-2.041v-116.797v-116.992h-9.102c-15.781,0-51.616-5.391-62.383-9.463
			c-24.697-9.277-3.901-19.131,50.137-23.77c67.769-5.938,150.034,2.598,154.482,15.967c2.231,6.318-29.712,14.482-63.867,16.709
			l-19.121,1.123v116.611v116.611l7.983,2.041c32.866,8.35,62.954,27.1,86.152,54.209c54.409,63.32,65.923,160.996,27.852,237.31
			l-9.653,19.502l-137.769,0.557l-137.778,0.366L-878.579,4829.931z M-614.17,4809.501c3.896-4.644,12.998-31.938,16.152-48.652
			c4.453-24.316,2.783-66.289-3.53-88.564c-14.854-51.816-47.725-90.811-90.425-107.705
			c-76.313-29.902-158.94,25.996-178.257,120.879c-7.983,39.546-2.417,89.678,13.735,120.688l3.154,5.942h118.472
			C-636.074,4812.099-616.025,4811.733-614.17,4809.501z"/>
		<path fill="#FFFFFF" d="M-866.509,4716.665c0-7.056,8.35-37.886,14.663-54.038c8.35-21.729,20.986-41.963,35.469-57.178
			c14.482-15.234,27.3-23.594,46.787-30.645c11.699-4.092,16.714-4.824,35.835-4.824c34.351-0.195,56.265,8.164,77.983,29.512
			c23.589,23.408,41.968,65.557,46.987,108.252l1.479,13.374h-72.598h-72.788l-0.186-6.689c-0.366-8.735-6.499-19.302-14.668-24.878
			c-9.468-6.494-25.068-6.494-34.536,0c-7.983,5.576-14.482,16.338-14.849,25.068l-0.371,6.499h-24.512h-24.697V4716.665z"/>
	</g>
</g>
<path fill="#FFFFFF" d="M-62.344,66.404L-3.98,32.708l-8.985-15.563l-58.365,33.697 M-81.8,77.637l11.674-6.739l-8.985-15.563
	l-11.673,6.739 M-84.368,1.301l2.246,3.892c3.73,6.458,1.526,14.683-4.934,18.412c-10.738,6.2-14.422,19.948-8.223,30.686
	l7.782-4.493c-3.728-6.458-1.525-14.683,4.935-18.412c10.738-6.2,14.423-19.947,8.223-30.686l-2.247-3.891L-84.368,1.301z"/>
<g id="Icons">
	<path id="menu" fill="#FFFFFF" d="M-92.882,55.41h64.867c2.988,0,5.405,1.939,5.405,4.334v4.332c0,2.396-2.417,4.334-5.405,4.334
		h-64.867c-2.991,0-5.406-1.938-5.406-4.334v-4.332C-98.288,57.35-95.873,55.41-92.882,55.41z M-98.288,32.855v4.333
		c0,2.396,2.415,4.334,5.406,4.334h64.867c2.988,0,5.405-1.938,5.405-4.334v-4.333c0-2.396-2.417-4.333-5.405-4.333h-64.867
		C-95.873,28.522-98.288,30.458-98.288,32.855z M-98.288,6.341v4.333c0,2.397,2.415,4.333,5.406,4.333h64.867
		c2.988,0,5.405-1.936,5.405-4.333V6.341c0-2.397-2.417-4.333-5.405-4.333h-64.867C-95.873,2.008-98.288,3.944-98.288,6.341z"/>
</g>
<g id="Guides" display="none">
</g>
<path fill="#FFFFFF" d="M-22.193,45.453h-20.015c-0.838-0.174-1.56-0.727-1.9-1.537l-2.423-5.811l-7.38,19.62
	c-0.387,1.025-1.368,1.703-2.459,1.703c-0.036,0-0.075,0-0.113-0.004c-1.132-0.048-2.106-0.822-2.414-1.917l-7.021-25.091
	l-2.931,11.156c-0.301,1.154-1.346,1.96-2.54,1.96h-11.066c-1.452,0-2.626-1.177-2.626-2.626c0-1.452,1.174-2.627,2.626-2.627h9.041
	l4.875-18.567c0.301-1.146,1.332-1.95,2.519-1.959c1.152-0.014,2.229,0.776,2.552,1.919l7.471,26.692l6.886-18.311
	c0.38-1.009,1.337-1.681,2.414-1.702c1.088-0.014,2.056,0.622,2.47,1.617l4.299,10.311h9.066c6.593-9.355,5.884-22.394-2.244-30.683
	c-4.319-4.404-10.105-6.83-16.297-6.83c-6.325,0-12.276,2.514-16.756,7.084l-2.139,2.18l-2.139-2.182
	c-4.477-4.568-10.429-7.084-16.754-7.084c-6.19,0-11.98,2.428-16.299,6.831c-9.044,9.224-8.937,24.347,0.246,33.708l32.763,33.416
	c0.602,0.612,1.392,0.918,2.186,0.918c0.79,0,1.58-0.308,2.185-0.918l23.786-24.261h20.135c1.934,0,3.502-1.57,3.502-3.503
	C-18.691,47.023-20.26,45.453-22.193,45.453z"/>
<g>
	<g>
		<path fill="#FFFFFF" d="M-53.498,18.112c2.6-0.2,5.1-1.1,7.2-2.6l0.699-0.4c0.301-0.2,0.601-0.6,0.601-1c0-0.4-0.101-0.8-0.4-1.1
			l-3.6-3.3l1.1-5.5c0.101-0.5-0.1-1.1-0.6-1.4c-0.5-0.3-1.101-0.3-1.601,0l-0.699,0.5c-1.7,1.2-3.7,1.9-5.801,2.1
			c-2,0.2-4,0.7-5.8,1.7l3.7,12.7C-57.099,18.812-55.298,18.212-53.498,18.112z"/>
		<path fill="#FFFFFF" d="M-87.598,42.212c0.8,0.5,3.4,1.9,6.8,2.4c0.1,2.8,0.5,14.899,0.5,15.2c0.2,3.1,0.4,8.3,0.4,10
			c0,1.199-1.6,7.3-3,12.199l5.5,0.7h0.1c0.1,0,0.2,0,0.3-0.1c1.1-3.8,3-10.8,3-12.9c0-1.399-0.2-4.7-0.3-7.7
			c0.2,0.101,0.3,0.2,0.4,0.301c0.6,0.399,1.6,0.899,3.4,1.699c1.1,0.5,3.3,1.4,4.3,2c0.2,1.601,0,5.801-0.3,9.4h5.899
			c1-10.9-0.199-12.4-0.8-13.1c-1.1-1.301-3.3-2.301-6.8-3.801c-0.3-0.199-0.8-0.3-1.1-0.5l0.3-13.5c3.399-0.5,5.899-1.9,6.7-2.4
			c1.199-0.8,2.699-2.3,4-3.9l0.8,2.8c0.2,0.6,0.7,1,1.3,1c0.1,0,0.3,0,0.4-0.1c0.699-0.2,1.199-1,1-1.7l-1.4-4.7
			c0.5-0.7,0.9-1.3,1.1-1.6c0.801-1.1,0.5-2.7-0.699-3.5c-0.601-0.4-1.4-0.5-2-0.4l-7-23.9c-0.2-0.7-1-1.2-1.7-1
			c-0.7,0.2-1.2,1-1,1.7l7.3,25.5c-1.6,2.2-3.8,4.9-4.9,5.6c-1.399,0.9-4,1.9-6.6,1.9h-6.8c-2.6,0-5.1-1-6.6-1.9
			c-1.3-0.8-4.1-4.4-5.7-6.7c-0.8-1.1-2.4-1.4-3.5-0.7c-1.1,0.8-1.4,2.4-0.7,3.5C-94.098,35.112-90.398,40.612-87.598,42.212z"/>
		<circle fill="#FFFFFF" cx="-74.998" cy="32.212" r="5.9"/>
		<path fill="#FFFFFF" d="M-26.998,92.112l-9.5-9.2c-0.101-0.2-0.3-0.3-0.4-0.5l-5.8-8.7c-1.2-1.8-3.5-2.3-5.3-1.2l-8.4,5.2l0,0
			l-11.5,0.101c-0.8,0-1.7,0.399-2.2,1l-5.1,5.3c-0.7,0.7-1.7,1.1-2.7,0.899l-6.8-1c-1.3-0.199-2.5,0.5-3.1,1.601l-3.9,7.2
			c-1.1,2.1,0.4,4.6,2.7,4.6h59.7c1.199,0,2.3-0.6,2.899-1.6C-25.798,94.512-26.099,93.012-26.998,92.112z"/>
	</g>
</g>
<g id="Coche">
	<path d="M-116.872,73.873c-6.248-6.25-14.438-9.373-22.628-9.373s-16.379,3.123-22.628,9.373
		c-12.496,12.496-12.496,32.758,0,45.254c6.249,6.248,14.438,9.373,22.628,9.373s16.38-3.125,22.628-9.373
		C-104.376,106.631-104.376,86.369-116.872,73.873z M-120.407,115.592c-5.1,5.1-11.881,7.908-19.093,7.908
		s-13.992-2.809-19.093-7.908c-10.526-10.527-10.526-27.656,0-38.184c5.101-5.1,11.881-7.908,19.093-7.908
		s13.993,2.809,19.093,7.908C-109.881,87.936-109.881,105.064-120.407,115.592z"/>
	<polygon fill="#FFFFFF" points="41.409,51.922 28.871,38.299 15.02,52.156 15.016,52.152 41.125,78.268 85.25,34.148 
		75.167,23.897 	"/>
</g>
</svg>
