<?xml version="1.0" encoding="utf-8"?>
<!-- Generator: Adobe Illustrator 16.0.0, SVG Export Plug-In . SVG Version: 6.00 Build 0)  -->
<!DOCTYPE svg PUBLIC "-//W3C//DTD SVG 1.1//EN" "http://www.w3.org/Graphics/SVG/1.1/DTD/svg11.dtd">
<svg version="1.1" id="Calque_1" xmlns="http://www.w3.org/2000/svg" xmlns:xlink="http://www.w3.org/1999/xlink" x="0px" y="0px"
	 width="100px" height="100px" viewBox="0 0 100 100" enable-background="new 0 0 100 100" xml:space="preserve">
<g>
	<g transform="translate(0.000000,512.000000) scale(0.100000,-0.100000)">
		<path fill="#FFFFFF" d="M-393.027,5151.909v-51.987h60.361h60.361v51.987v51.987h-60.361h-60.361V5151.909z"/>
		<path fill="#FFFFFF" d="M-393.027,5017.836v-48.828l-12.422-6.499c-25.068-13.188-53.115-44.941-64.258-72.793
			c-11.133-27.847-10.576-12.627-10.576-338.496v-298.027h146.68h146.689v301.357c0,295.063,0,301.748-3.711,316.04
			c-9.834,38.804-36.758,73.716-70.752,91.919l-10.947,5.747v49.209v49.014h-60.352h-60.352V5017.836L-393.027,5017.836z
			 M-211.045,4545.644v-143.896h-120.703h-120.693v143.896v143.906h120.693h120.693v-143.906H-211.045z"/>
		<path fill="#FFFFFF" d="M-878.579,4829.931c-9.102-16.333-16.719-38.066-21.538-60.903c-5.566-27.3-4.453-73.901,2.598-100.093
			c19.126-72.227,66.841-122.91,130.908-139.072l7.798-2.041v-116.797v-116.992h-9.102c-15.781,0-51.616-5.391-62.383-9.463
			c-24.697-9.277-3.901-19.131,50.137-23.77c67.769-5.938,150.034,2.598,154.482,15.967c2.231,6.318-29.712,14.482-63.867,16.709
			l-19.121,1.123v116.611v116.611l7.983,2.041c32.866,8.35,62.954,27.1,86.152,54.209c54.409,63.32,65.923,160.996,27.852,237.31
			l-9.653,19.502l-137.769,0.557l-137.778,0.366L-878.579,4829.931z M-614.17,4809.501c3.896-4.644,12.998-31.938,16.152-48.652
			c4.453-24.316,2.783-66.289-3.53-88.564c-14.854-51.816-47.725-90.811-90.425-107.705
			c-76.313-29.902-158.94,25.996-178.257,120.879c-7.983,39.546-2.417,89.678,13.735,120.688l3.154,5.942h118.472
			C-636.074,4812.099-616.025,4811.733-614.17,4809.501z"/>
		<path fill="#FFFFFF" d="M-866.509,4716.665c0-7.056,8.35-37.886,14.663-54.038c8.35-21.729,20.986-41.963,35.469-57.178
			c14.482-15.234,27.3-23.594,46.787-30.645c11.699-4.092,16.714-4.824,35.835-4.824c34.351-0.195,56.265,8.164,77.983,29.512
			c23.589,23.408,41.968,65.557,46.987,108.252l1.479,13.374h-72.598h-72.788l-0.186-6.689c-0.366-8.735-6.499-19.302-14.668-24.878
			c-9.468-6.494-25.068-6.494-34.536,0c-7.983,5.576-14.482,16.338-14.849,25.068l-0.371,6.499h-24.512h-24.697V4716.665z"/>
	</g>
</g>
<path fill="#FFFFFF" d="M-62.344,66.404L-3.98,32.708l-8.985-15.563l-58.365,33.697 M-81.8,77.637l11.674-6.739l-8.985-15.563
	l-11.673,6.739 M-84.368,1.301l2.246,3.892c3.73,6.458,1.526,14.683-4.934,18.412c-10.738,6.2-14.422,19.948-8.223,30.686
	l7.782-4.493c-3.728-6.458-1.525-14.683,4.935-18.412c10.738-6.2,14.423-19.947,8.223-30.686l-2.247-3.891L-84.368,1.301z"/>
<g id="Icons">
	<path id="menu" fill="#FFFFFF" d="M17.906,71.943h64.867c2.988,0,5.405,1.939,5.405,4.334v4.332c0,2.396-2.417,4.334-5.405,4.334
		H17.906c-2.991,0-5.406-1.938-5.406-4.334v-4.332C12.5,73.883,14.915,71.943,17.906,71.943z M12.5,49.388v4.333
		c0,2.396,2.415,4.334,5.406,4.334h64.867c2.988,0,5.405-1.938,5.405-4.334v-4.333c0-2.396-2.417-4.333-5.405-4.333H17.906
		C14.915,45.055,12.5,46.991,12.5,49.388z M12.5,22.875v4.333c0,2.397,2.415,4.333,5.406,4.333h64.867
		c2.988,0,5.405-1.936,5.405-4.333v-4.333c0-2.397-2.417-4.333-5.405-4.333H17.906C14.915,18.541,12.5,20.477,12.5,22.875z"/>
</g>
<g id="Guides" display="none">
</g>
</svg>
