<?xml version="1.0" encoding="utf-8"?>
<!-- Generator: Adobe Illustrator 16.0.0, SVG Export Plug-In . SVG Version: 6.00 Build 0)  -->
<!DOCTYPE svg PUBLIC "-//W3C//DTD SVG 1.1//EN" "http://www.w3.org/Graphics/SVG/1.1/DTD/svg11.dtd">
<svg version="1.1" id="Layer_1" xmlns="http://www.w3.org/2000/svg" xmlns:xlink="http://www.w3.org/1999/xlink" x="0px" y="0px"
	 width="100px" height="100px" viewBox="0 0 100 100" enable-background="new 0 0 100 100" xml:space="preserve">
<g>
	<path fill="#4491FF" d="M68.473,14.194c2.416-0.028,4.193-0.139,4.889-0.278c0.166-0.028,0.389-0.083,0.666-0.139
		c0.417-0.111,0.973-0.222,1.584-0.333c-5.584-3.667-12-6.139-18.917-7.056c1.694,1.973,2.583,3.556,3.194,4.833
		C62.889,11.889,65.75,12.889,68.473,14.194z"/>
	<path fill="#4491FF" d="M94.306,37.889c-0.89,1.556-1.944,3.056-3.111,4.417c0.722,3.083,1.111,6.278,1.111,9.583
		c0,6.445-1.472,12.556-4.083,18.027c-0.028,3.834-0.834,7.695-2.389,11.39C92.473,73.334,96.5,63.084,96.5,51.889
		C96.5,47,95.723,42.306,94.306,37.889z"/>
	<path fill="#4491FF" d="M28.028,11.889C14.056,19.75,4.639,34.722,4.639,51.916c0,4.195,0.583,8.25,1.611,12.084
		c1.083-1.084,2.278-2.111,3.556-3.027c-0.639-2.917-1-5.945-1-9.057c0-14.472,7.361-27.222,18.556-34.722
		C27.472,15.389,27.694,13.583,28.028,11.889z"/>
	<path fill="#4491FF" d="M30.722,51.639c0.167-10.722,5-9.667,9.167-11.194c0.639-0.222,1.25-0.528,1.833-0.917
		c0,0,2.028-1.389,1.889-4.056c-0.056-1.056-0.445-2.306-1.417-3.722c-1.556-2.278-3.417-3.167-5.194-3.361
		c-2.722-0.277-5.25,1.083-6.25,1.723c-0.306,0.194-0.472,0.305-0.472,0.305l-6,4.889C24.139,41.972,26.694,47.194,30.722,51.639z
		 M37.944,30.75c2.028,0,3.667,1.639,3.667,3.667s-1.639,3.667-3.667,3.667s-3.667-1.639-3.667-3.667S35.917,30.75,37.944,30.75z"/>
	<path fill="#4491FF" d="M33.306,46.028c-2.056,1.333,1.556,5.25,2.639,7.917c1.083,2.694,4.028,5.167,8.972,3.944
		c-7.305,0.223-8.028-4.444-8.028-4.444L43,50.611C41,46.75,35.5,44.611,33.306,46.028z"/>
	<path fill="#4491FF" d="M21.361,76.277c0.25,6.5,2.917,11.75,15.027,18.361c0,0-4.194-18.666,5-33.444
		c-2.861-1.11-5.583-2.444-8.111-4C29.333,57.194,21,66.277,21.361,76.277z"/>
	<path fill="#4491FF" d="M44.5,97.111c0,0,6.473,1.5,9.5,0.583c4.973-2.028,8.584-11.11,9.139-16.75
		c0.806-7.472-1.527-15.444-2.305-15.972c-0.084-0.057-0.168-0.084-0.25-0.139c-2.584-0.028-5.14-0.223-7.695-0.611
		C55.139,77.084,52.5,88.111,44.5,97.111z"/>
	<path fill="#4491FF" d="M35.222,16.306c0.444-2.722,1.917-6.333,3.889-6.806c4.277-1.056,9.555,4.639,9.861,7.694
		C43.639,18.361,38.583,21.5,38.583,21.5c10.889,2.056,13.472,10.611,6.778,17.75c0,0,1.667,0.944,2.25,0.139
		c7.166-12.777,18.527-10.611,24.611-1.944c0.777,1.194,7.139,3.889,11.193,6.222c2.918-0.805,6.723-5.278,8.918-10.111
		c2.305-5.056,2.943-10.528,1.61-12.611c-1.056-1.556-6.25-3.75-11.139-4.278c-3.806-0.417-7.444,0.667-8.75,0.917
		c-2.972,0.583-12.944,0.472-14.361-0.389c-3.222-1.917-1.917-3.944-6-8.556c-4.083-4.611-13.417-7.583-16.167-6.361
		c-6.222,3-8.333,19.528-4.556,24.556C38.278,23.5,34.528,20.028,35.222,16.306z M87.806,24.306
		c1.528,2.639-2.64,10.944-6.111,13.111l-6.722-12.5C76.806,22.667,86.25,21.667,87.806,24.306z"/>
	<path fill="#4491FF" d="M3.5,75.473c4.5,0.193,8.556,1.361,12.083,3.722c-0.445-10.528,0.083-11.722,4.111-19.056
		C12.361,62.639,6.167,67.473,3.5,75.473z"/>
	<path fill="#4491FF" d="M67.473,64.416c8.166,10.084,8.889,13.611,8.639,17.973c0,0-1.861-5.555-6.223-11
		c1.945,9-0.111,17.334-6.916,24.917c15.083-2.972,26.361-20.861,19.416-36.611C77.834,62.194,72.723,63.75,67.473,64.416z"/>
	<path fill="#4491FF" d="M76.639,52.806c-2.194-1.222-4.223-4.5-7.083-8.306c-2.333-2.917-9.472-11.306-15.944-7.083
		c-1,0.667-2,1.611-2.973,2.972c0.167,0.139,0.361,0.25,0.527,0.389c3.668,2.639,8.084,5.194,7.057,12.361
		c-1,7.806-11.028,7.806-11.028,7.806c4.111,1.64,9.167,2.167,14.222,1.972C72.25,62.5,83.111,58.75,84.694,55.694
		c0.194-0.389,0.25-0.778,0.14-1.139C84.139,52.111,80.973,55.223,76.639,52.806z M59.861,45.944c-2.027,0-3.667-1.639-3.667-3.667
		s1.64-3.667,3.667-3.667s3.666,1.639,3.666,3.667C63.556,44.306,61.889,45.944,59.861,45.944z"/>
	<circle fill="#4491FF" cx="37.944" cy="34.417" r="1.972"/>
	<circle fill="#4491FF" cx="59.694" cy="42.111" r="1.972"/>
</g>
</svg>
